<?xml version="1.0" encoding="UTF-8" standalone="no"?><!DOCTYPE svg PUBLIC "-//W3C//DTD SVG 1.1//EN" "http://www.w3.org/Graphics/SVG/1.1/DTD/svg11.dtd"><svg width="100%" height="100%" viewBox="0 0 32 32" version="1.1" xmlns="http://www.w3.org/2000/svg" xmlns:xlink="http://www.w3.org/1999/xlink" xml:space="preserve" xmlns:serif="http://www.serif.com/" style="fill-rule:evenodd;clip-rule:evenodd;stroke-linecap:round;stroke-linejoin:round;stroke-miterlimit:10;"><rect id="Artboard1" x="0" y="0" width="32" height="32" style="fill:none;"/><clipPath id="_clip1"><rect id="Artboard11" serif:id="Artboard1" x="0" y="0" width="32" height="32"/></clipPath><g clip-path="url(#_clip1)"><g id="OBJECTS"></g><path d="M26.463,25.05l-21.361,-19.599" style="fill:none;fill-rule:nonzero;stroke:#231f20;stroke-width:3.85px;"/><path d="M29.213,25.311l-2.636,0l0.285,3.381" style="fill:none;fill-rule:nonzero;stroke:#231f20;stroke-width:3.97px;"/><path d="M5.464,2.921l-0,2.991l-2.98,-0.323" style="fill:none;fill-rule:nonzero;stroke:#231f20;stroke-width:3.97px;"/><path d="M5.234,25.05l21.362,-19.599" style="fill:none;fill-rule:nonzero;stroke:#231f20;stroke-width:3.85px;"/><path d="M2.484,25.311l2.636,0l-0.285,3.381" style="fill:none;fill-rule:nonzero;stroke:#231f20;stroke-width:3.97px;"/><path d="M26.234,2.921l-0,2.991l2.979,-0.323" style="fill:none;fill-rule:nonzero;stroke:#231f20;stroke-width:4.09px;"/><path d="M27.128,16.045c-0.136,-6.634 -4.94,-12.006 -10.788,-12.064c-5.847,0.058 -10.652,5.43 -10.787,12.064c-0.011,0.498 0.005,0.99 0.046,1.474c0.091,1.086 0.748,2.004 1.668,2.322c0.348,0.12 0.689,0.218 1.004,0.296c0.938,0.232 1.61,1.168 1.61,2.257l0,4.512c0,0.905 4.425,1.759 6.459,1.786c2.034,-0.027 6.459,-0.881 6.459,-1.786l0,-4.512c0,-1.089 0.672,-2.025 1.61,-2.257c0.316,-0.078 0.657,-0.176 1.006,-0.296c0.918,-0.318 1.575,-1.236 1.667,-2.322c0.04,-0.483 0.056,-0.976 0.046,-1.474" style="fill:#fff;fill-rule:nonzero;"/><path d="M27.128,16.045c-0.136,-6.634 -4.94,-12.006 -10.788,-12.064c-5.847,0.058 -10.652,5.43 -10.787,12.064c-0.011,0.498 0.005,0.99 0.046,1.474c0.091,1.086 0.748,2.004 1.668,2.322c0.348,0.12 0.689,0.218 1.004,0.296c0.938,0.232 1.61,1.168 1.61,2.257l0,4.512c0,0.905 4.425,1.759 6.459,1.786c2.034,-0.027 6.459,-0.881 6.459,-1.786l0,-4.512c0,-1.089 0.672,-2.025 1.61,-2.257c0.316,-0.078 0.657,-0.176 1.006,-0.296c0.918,-0.318 1.575,-1.236 1.667,-2.322c0.04,-0.483 0.056,-0.976 0.046,-1.474Z" style="fill:none;fill-rule:nonzero;stroke:#231f20;stroke-width:1.99px;stroke-linecap:butt;stroke-linejoin:miter;"/><path d="M20.414,13.167l2.507,2.259" style="fill:none;fill-rule:nonzero;stroke:#231f20;stroke-width:3.39px;"/><path d="M22.921,13.167l-2.507,2.259" style="fill:none;fill-rule:nonzero;stroke:#231f20;stroke-width:3.27px;"/><path d="M12.267,13.167l-2.507,2.259" style="fill:none;fill-rule:nonzero;stroke:#231f20;stroke-width:3.39px;"/><path d="M9.76,13.167l2.507,2.259" style="fill:none;fill-rule:nonzero;stroke:#231f20;stroke-width:3.5px;"/><path d="M16.242,17.042l1.484,1.41c2.16,2.222 -0.652,5.677 -2.969,3.646c-0.932,-0.885 -1.023,-2.419 -0.203,-3.426c0.074,-0.116 1.552,-1.497 1.688,-1.63" style="fill:#231f20;fill-rule:nonzero;"/><path d="M13.338,24.618l-0.59,3.596" style="fill:none;fill-rule:nonzero;"/><path d="M13.338,24.618l0.384,3.782l-1.948,-0.373l1.564,-3.409Z" style="fill:#231f20;fill-rule:nonzero;"/><path d="M19.145,24.618l0.59,3.596" style="fill:none;fill-rule:nonzero;"/><path d="M19.145,24.618l1.564,3.409l-1.948,0.373l0.384,-3.782Z" style="fill:#231f20;fill-rule:nonzero;"/><path d="M16.242,24.618l0.989,3.732l-1.979,0l0.99,-3.732Z" style="fill:#231f20;fill-rule:nonzero;"/><path d="M18.59,7.995l-1.661,-0.033l0.887,-3.981l-2.436,-0l-1.289,5.962l2.249,-0l-0.357,3.352c1.404,-2.619 2.607,-5.3 2.607,-5.3" style="fill:#231f20;fill-rule:nonzero;"/></g><g id="OBJECTS1" serif:id="OBJECTS"></g><g id="OBJECTS2" serif:id="OBJECTS"></g></svg>